<svg version="1" xmlns="http://www.w3.org/2000/svg" width="933.333" height="933.333" viewBox="0 0 700.000000 700.000000"><path d="M130.1 43.2c-7.1 14.7-9.5 23.1-8.6 30.2.8 6.2 4.7 15.2 8.2 18.8l2.6 2.7-4.7 4.8c-2.5 2.6-7.4 8.3-10.8 12.5-3.5 4.2-6.6 7.7-7 7.7-.5.1-.8-.7-.8-1.8 0-3.1-2.6-8.4-7.3-14.6-5.1-6.9-18-20.5-19.5-20.5-1.7 0-6.4 22-6.8 31.9-.4 8.7-.2 9.8 2.6 15.5 3.2 6.6 7.2 11.6 10.8 13.5 2.9 1.6 2.8 2.2-1.3 8.7-1.9 3-3.5 5.6-3.5 5.8 0 .3-1.7 3.5-3.9 7.1l-3.9 6.7-1.2-3.7c-1.4-4.3-10.7-14.1-19.5-20.6-3.3-2.4-6.2-4.7-6.5-5-.8-1-5.1-3.1-5.5-2.7-.9.8-1.5 7.1-2 17.8-.5 13.5 1 22.7 4.7 28.5 3.2 5.1 9.8 11 14.1 12.9l3.4 1.4-4.1 12.3-4 12.4-5.7-5.6c-4.4-4.3-8.7-7.2-18.9-12.3-7.3-3.6-13.6-6.6-14-6.6-.4 0-.6 1.2-.5 2.7.2 1.6.6 5.9 1 9.6.7 7.6 1 9.1 2.6 16.2 3.4 14.2 11.8 23.7 23.7 26.7l4.3 1.1-.6 4.6c-.3 2.5-1 7.5-1.6 11.1-.5 3.6-1.1 8.7-1.3 11.5-.2 2.7-.4 5.4-.5 5.9-.1.6-1.3-.2-2.8-1.6-5.1-4.7-16.6-9.3-31.1-12.3-10.8-2.2-10.4-2.4-8.6 3.7 2.8 9.3 9.4 24.2 13 29.1 5.8 8 15.7 13.1 25.1 13 3.3 0 4.3.3 4.4 1.6.2 4.9 1.7 21.6 2.5 26.9l.6 4.4-2.9-1.5c-1.5-.8-4.8-2-7.3-2.7-4.7-1.3-29.9-2.3-33.7-1.4-2.2.6-2.1.8 1.9 7.2 10.4 16.6 17.3 24.1 25.7 28 4.8 2.3 6.9 2.7 14.3 2.6l8.7-.1.6 3.1c.9 3.9 3.3 12 5.1 16.8.8 2.1 1.3 3.8 1.1 3.8-.1 0-2.2-.6-4.7-1.4-5.9-1.7-20.5-1.4-35.2.9-2.7.4-4.8.9-4.8 1.2 0 .7 2.2 4.7 2.9 5.3.3.3 2.9 3.2 5.6 6.5 6.1 7.2 11.8 12.7 16.5 16 7.2 5 20.4 6.4 28.4 3.1l3.6-1.5 5.1 10.2c2.8 5.6 5.5 10.6 6 11.2 1.8 1.8.8 2.3-4.3 2.1-7.8-.4-22.3 3-37 8.9-1 .4-1.6 1.1-1.3 1.5.9 1.4 18.8 15.6 21.5 17 1.4.7 2.7 1.6 3 1.9.3.4 2.5 1.5 5 2.6 3.3 1.5 6.7 2 13 2 7.7 0 9.1-.3 14-3.1l5.5-3.2 2.9 4c1.6 2.3 5.4 6.9 8.4 10.5 3 3.5 5.3 6.5 5.1 6.7-.2.1-3.1.8-6.4 1.5-6.5 1.4-17.4 6.2-27 11.9-3.3 1.9-6.2 3.7-6.4 3.9-1 .8 2.8 3.3 11.9 8.1 10.4 5.5 20.8 9.4 25.5 9.5 8.5.1 17.7-3 22.8-7.7 1.5-1.4 3-2.6 3.3-2.6.5 0 10.9 8.5 12.4 10 .3.3 1.7 1.5 3.2 2.7l2.8 2.1-4.3 1.1c-7.7 1.9-34.5 19-33.2 21.2.8 1.2 17.5 7.9 25 10 14.6 4 26.2 1.5 35.1-7.7l5.1-5.2 4.9 3.1c2.7 1.6 5.9 3.7 7.2 4.4 2.3 1.4 2.3 1.5-3.5 4.9-8.8 5.3-25.4 18.7-24.3 19.7 1.3 1.1 17.5 6.1 25.1 7.7 10.2 2.1 17.2 1.7 24.3-1.4 4.9-2.2 11.9-8 14.1-11.8.9-1.6 2.1-1.4 14 2.7 7.2 2.4 18.1 5.7 24.4 7.3l11.5 2.8 1.8 8.3c4.8 22.6 21.2 40.6 43.1 47.3 7.5 2.3 21 3 29.3 1.6 17.5-3 35.8-16.8 43.8-33.1 3.4-7 6.6-17.4 6.6-21.5 0-2.5.7-3 5.2-3.7 1.8-.3 6.2-1.4 9.6-2.4 3.4-1.1 6.2-1.8 6.2-1.6 0 .2 6.4-1.8 14.2-4.5 12.1-4.1 14.4-4.6 15.1-3.4 2.4 4.2 7.5 8.7 13.2 11.5 7.4 3.6 14.8 4.3 24 2.3 9-2.1 26.5-7.6 26.5-8.4 0-.4-2.3-2.7-5.2-5.1-2.8-2.4-5.6-4.9-6.2-5.4-2.4-2.2-12.3-9-15.5-10.6l-3.4-1.6 5.4-3.5c9.8-6.3 9.4-6.2 12.3-2.3 5.7 7.4 15.3 11.7 25.7 11.4 6.9-.2 19.7-4 31.4-9.3l6-2.7-3-2.5c-10-8.3-29.5-19.4-34-19.4-1 0 .2-1.6 3.2-3.9 2.6-2.2 6.8-5.7 9.2-7.8l4.5-4 2.8 2.8c6.7 6.3 17.9 9.3 27.8 7.2 6-1.2 21.2-8 30.4-13.6l3.8-2.4-8.2-4.8c-10.8-6.4-22.4-11.3-28.2-12.1-2.7-.4-4.8-.9-4.8-1.1 0-.2 2.4-3.3 5.3-6.7 3-3.5 6.7-8.1 8.2-10.3l2.9-4 5.9 3.1c5.4 2.8 7 3.1 14.6 3.1 8.1 0 9-.2 15.6-3.9 6.4-3.5 14.6-9.6 23.4-17.4l3.5-3-4-1.7c-11-4.6-28.3-8.4-36-7.9-4.3.3-5.3-.3-3.5-2.2.5-.5 3.2-5.5 6-11l5-10.1 5.3 1.7c12.3 4.1 24.5.1 36.3-11.7 5.7-5.8 15.5-17.8 15.5-19.1 0-.5-2.1-1.3-4.6-1.7-2.5-.3-5.6-.9-6.7-1.1-1.2-.2-6.7-.6-12.2-.9-9.2-.4-13.4 0-19.1 1.9l-2.1.7 2.2-6.8c1.2-3.8 2.8-9.2 3.5-12.1l1.4-5.3 5.5.6c9.4 1 19.2-2.2 26.2-8.7 4.9-4.6 17.9-22.3 17.9-24.4 0-.4.7-1.5 1.6-2.5 1.4-1.6 1.4-1.8-.4-2.3-1-.4-8.4-.4-16.3-.2-14.1.4-23.3 2.1-26.8 5-1.2.9-1.3.4-.7-3.2.7-4.7 2.1-20 2.5-27.3.1-1.2 1.3-1.6 5.4-1.6 6.9 0 17.5-5 22.1-10.4 4.9-5.8 11.2-19.1 15-31.8l1.6-5.4-3.8.7c-7.5 1.2-9.8 1.7-14.7 3.2-2.7.9-6.1 1.8-7.4 2-3.9.8-13 5.6-15.7 8.2-1.3 1.4-2.4 2.1-2.5 1.6 0-.5-.2-1.6-.3-2.4-.2-.8-.6-5.3-1-9.9-.3-4.6-.8-8.6-1-9-.2-.3-.7-3.2-1-6.3l-.6-5.6 3.2-.7c8.6-1.8 18.6-10.3 22.1-18.6 2.1-5.2 4.5-16.3 5.2-24.9.4-4.1.8-8.5 1-9.8.5-3-.8-2.6-16 5.2-8.6 4.4-13.5 7.7-17.5 11.6l-5.6 5.5-3.8-11.5c-2.1-6.3-4-12-4.2-12.5-.2-.6 1.6-1.8 4-2.8 5.6-2.3 12-9.2 15.3-16.3 2-4.4 2.5-7.3 2.7-15.7.2-5.6-.1-14.1-.7-18.9l-.9-8.7-4.7 3.1c-13.2 9-24.6 20.1-27.4 26.7l-1.3 3.1-3.4-6.3c-1.8-3.4-5-9.1-7.2-12.6-2.1-3.4-3.8-6.7-3.8-7.1 0-.5 1.2-1.6 2.8-2.5 4-2.4 9-9.5 11.3-16.2 1.7-4.7 2-7.3 1.5-13.8-.6-8.9-.5-8.7-3.6-20.5-1.2-4.7-2.2-9.1-2.3-9.7-.1-1.7-1.6-.5-10.1 8.2-11 11.2-17.6 21.1-17.6 26.7-.1 2.5-.6 2-9.9-8.8-1.9-2.1-5.7-6.3-8.4-9.1l-5.1-5.3 2.5-2.7c7.7-8.5 10.3-20.5 7-32.3-1.7-6-12.8-29-14.1-29-1.3 0-11.7 17.9-15.1 26-2.3 5.5-3.2 9-3.8 15.2-.2 1.5-21-15.3-21.7-17.5-1-3.4-5.7-9.3-9.9-12.7-3.4-2.7-9.2-5-16.6-6.6-4.5-.9-28.9-1.7-28.9-.9 0 1.8 11.1 20.3 15.5 25.7 5.8 7.3 10.3 10.3 19 12.6 4.9 1.2 9.2 3.2 14.2 6.7 4 2.8 7.3 5.2 7.3 5.5 0 .3-2.9 1.4-6.5 2.4-6.1 1.7-25.3 10.5-28.3 12.9-1 .8.1 1.9 4.5 4.7 14.5 9.1 25.9 14.1 33 14.5 8.4.4 18-2.7 23.1-7.5l2.3-2.2 7.4 7.8c4.1 4.4 7.5 8.2 7.5 8.6 0 .5-2.1.9-4.7.9-6.1.2-7.5.4-14.8 1.8-7.9 1.7-16.8 4.1-17.8 5-1.7 1.6 21.9 22 29.4 25.4 8 3.6 22.9 3 28.1-1.3l2.2-1.8 5.3 8.7c2.9 4.7 5.2 9.1 5.3 9.7 0 .9-1.1.9-3.7.3-6.3-1.4-35.3 0-35.3 1.8 0 .6 5.9 9.1 8.1 11.8 15.9 18.9 21 22.1 35.4 21.9 4.4-.1 8.8-.3 9.9-.5 1.5-.3 2.3.8 4.1 5.6 1.2 3.3 2.4 7 2.7 8.3.6 2 .5 2.1-2.1.8-1.4-.8-6.2-2.1-10.6-3.1-8.3-1.7-10-1.9-20.2-2.9l-6.2-.6 1.1 3.2c3 8.7 12.4 25.1 17.4 30.4 6.1 6.4 16.3 10.4 25.1 9.9l5.1-.3.7 5.1c.9 6.8 1.5 11.6 1.9 14.9l.3 2.7-8.1-4.4c-8.1-4.3-27-11.4-28-10.5-.2.3.2 3.7 1 7.5.9 3.9 1.7 7.9 2 9 1.6 7.7 6.6 19.9 9.6 23.5 3.8 4.6 10.8 9 16.8 10.6 3.6 1 6.8 2.2 7.1 2.7.3.4.4 2.5.3 4.5-.5 5-1.2 14.4-1.3 16.2-.1.9-1.1.4-2.9-1.5-6.6-7-28.5-22.6-29.8-21.2-.7.6-.6 26.6 0 29.7.3 1.4.8 3.8 1.1 5.5 1 5 4.6 11.3 8.8 15.5 4 3.9 11.2 8 14.2 8 .8 0 1.5.3 1.5.8 0 1.2-4.8 18.4-5.3 18.9-.3.2-1.4-1.1-2.6-3-3.3-5.4-24.2-24.7-26.7-24.7-1.9 0-3.7 13.3-3.8 28 0 9.3.3 11.2 2.6 16.2 2.9 6.2 10.6 14.4 14.4 15.4 1.3.3 2.4 1.1 2.4 1.6 0 .9-2.6 6.2-7.3 15.1l-1.5 2.8-1.6-4.2c-3.3-8.2-20.9-31-22.6-29.2-2.8 2.9-10.3 32.5-9.5 37.3 1.2 7.6 2 10.1 4.3 14.3 1.4 2.6 4.3 6.3 6.3 8.2l3.8 3.4-6.4 8.1-6.3 8-.7-3.3c-1.9-8.7-14.8-35.1-16.9-34.4-1.6.5-10.5 16.8-13.8 25.2-4.9 12.8-3.7 24.9 3.3 33.8 1.7 2 2.8 4.1 2.5 4.5-.3.5-3.8 3.6-7.8 6.9l-7.3 6v-4.1c-.1-2.2-.4-5.5-.7-7.1-.9-4.5-5.4-17.7-8.5-24.5l-2.7-6.1-2.3 2.5c-4 4.3-13.5 18.9-16.5 25.3-4.5 9.4-4.3 19.3.4 29.1 1.1 2.4 1.9 4.5 1.7 4.6-1 .9-18.6 10.6-19.1 10.6-.4 0-.2-1.4.4-3.1 1.1-3.3.5-16.6-1.1-21.5-.5-1.6-2-6.3-3.2-10.4-1.3-4.1-2.8-8.5-3.5-9.8l-1.2-2.3-2.4 2.4c-1.4 1.4-4.2 4.7-6.4 7.3-2.1 2.7-4.2 5.1-4.5 5.4-1.2.9-8.5 13.5-9.9 16.9-2.1 5.2-1.6 16.7.9 22.5 1.2 2.7 2 5 1.9 5.1-.8.8-17.6 6-27.1 8.5l-10.8 2.9-.9-2.2c-.4-1.2-1.3-3.5-1.9-5.1-2.2-5.5-10.1-16.4-15.7-21.5-6.7-6.1-19.5-12.6-28.6-14.5-30.4-6.3-60.8 10.9-71.7 40.6l-1 2.7-12.9-3.4c-10.6-2.8-23.8-7-25-8-.1-.1.8-2.4 2-5.1 3.1-7.1 3-18-.4-25.4-3.2-7-19.8-29-22-29-.3 0-2 4.2-3.7 9.3-5.5 16.6-7.4 29.2-5.1 35.1.5 1.4.7 2.6.4 2.6-.7 0-13.5-7-17.1-9.5-2.8-1.8-3-2.3-1.8-3.6 2.7-2.8 5.3-13.1 4.9-19.3-.6-8.8-8.6-24.1-19.1-36.5l-3-3.4-3.6 8.6c-4.9 11.7-7.9 22.2-8.1 27.9 0 2.7-.3 4.8-.5 4.8-.5 0-8.2-6.3-12.4-10.1-2.7-2.5-2.8-2.9-1.4-4.3 7.5-7.5 10.1-21.5 6.1-33.3-2.8-8.2-13.6-28.3-15.3-28.3-.8 0-3.3 4.5-9.1 16-5 9.8-8 18.6-7.3 20.7 1 2.8-1 .9-7.1-6.8l-6.4-8.1 3.9-3.6c5.2-4.7 10.1-14.7 10.4-21.5.1-2.9-.4-8.4-1.2-12.2-1.5-7.2-7-24.4-8.2-25.7-1.6-1.8-18.6 19.9-22.3 28.4l-2.1 4.9-4.3-8.3c-2.4-4.6-4.3-8.6-4.4-9 0-.3 1.9-1.7 4.3-3.1 5.4-3.2 9.2-7.7 12.6-14.7 2.3-4.9 2.6-6.7 2.6-16 0-10-.8-18.6-2.3-25.8l-.7-3.2-8 6.3c-7.9 6.3-16.1 14.5-20.1 20.1l-2 2.8-2.2-7.3c-3.6-12.5-3.7-12.9-1.6-12.9 3.4-.1 9.9-3.7 14-7.9 5.1-5.2 8.1-11.1 9.5-18.7 1.2-6.3 1.6-31 .6-32.1-1.4-1.4-24.6 15.2-30.4 21.7l-2.2 2.5-.2-2.5c0-1.4-.2-3.9-.4-5.5-.3-3.4-.7-12.4-.6-14.1.1-.6 2.5-1.6 5.5-2.3 8.7-1.9 17.8-8.7 21.6-16.1 3.8-7.4 10.8-33.5 9.4-34.9-.9-1-17.4 5.1-26.7 9.8-7.2 3.6-9.5 4.4-9.2 3.2.2-.9.8-5.9 1.5-11.2l1.2-9.5h6.6c12.8-.1 21.9-5.7 29.9-18.2 2.9-4.5 12.3-23.4 12.3-24.7 0-.2-1.7-.3-3.7-.1-2.1.2-6.9.7-10.7 1.1-5.9.6-13.6 2.2-23.4 5.1l-2.2.6 2.9-7.8c2.3-6.4 3.3-7.8 4.8-7.6 20.5 3.6 31.4-2.1 47.9-25 3.1-4.4 5.4-8.2 5-8.5-1.4-1.5-31.3-2.5-35.8-1.2-1.8.5-2.8.4-2.8-.3 0-1 3-6.8 4-7.8.3-.3 1.1-1.6 1.8-3s2.1-3.5 3-4.7l1.7-2.3 4.5 2.3c6 2.9 20.6 3.1 26 .3 8.6-4.5 30.9-24.1 29.2-25.8-1.3-1.3-27.4-7.1-29.9-6.7-.4.1-2.3.1-4.1 0-4.1-.1-3.7-1.1 5.1-10.4l6.3-6.8 2.5 2.2c4.1 3.6 12.1 6.8 18.7 7.3 9.6.8 20.8-3.5 38-14.7l5.3-3.5-3.3-2c-8.7-5.3-23.5-11.6-30.4-12.8-1.6-.3-2.9-.6-3.1-.7-.1-.1 3.2-2.6 7.3-5.6 5.5-4 9.2-5.8 13.7-6.8 9.9-2.3 15.2-6.1 22.9-16.3 3.2-4.3 12.8-21.1 12.8-22.3 0-1.3-23.7-.2-31 1.4-3 .6-7.3 1.9-9.6 2.9-4.7 2.2-12.4 10-14.5 14.8-.9 2.3-4.9 6.1-11.6 11.3-5.6 4.3-10.4 7.9-10.5 7.9-.2 0-.4-1.9-.5-4.2-.5-7.1-5.4-18.4-14.1-32-2-3.2-4-5.8-4.5-5.8-.4 0-3.4 5.5-6.6 12.2z"/><path d="M262.7 131.8c-1.9.4-1.2-2.5-11.8 49.6-4.9 24.2-8.6 44.3-8.2 44.7.9.7 14.4 4.1 14.8 3.7.2-.2 2.4-6.4 4.9-13.9 12.8-38.6 23.7-49 52.9-50.6l10.7-.6-.1 144.4c-.1 120.7-.3 144.9-1.5 147.6-2.6 6.1-10.9 10.2-20.6 10.3-2.9 0-3.8.4-3.9 1.7-.1 2.2-.1 12.4 0 13.8.1.8 16.1 1.1 50.6 1.1H401V467.3l-6.6-.6c-9.3-.9-14.8-3.7-17.3-9.1-2.1-4.2-2.1-4.9-2.1-148.5V164.9l8.8.2c11.8.2 19.5 1.6 26.7 4.9 13.2 6.1 21.4 18.5 30.8 46.9 2.2 6.9 4.2 12.7 4.3 12.9 0 .1 3.2-.5 7-1.4 6.8-1.5 9.8-3 8.9-4.3-.4-.7-4.8-21.5-6-28.4-.3-1.5-1.2-6-2.1-10-.8-3.9-1.7-8.3-2-9.7-.2-1.4-.9-4.5-1.4-7-.6-2.5-1.3-5.6-1.5-7-.3-1.4-1.7-8.6-3.2-16.2l-2.7-13.6-3.5-.4c-2-.1-5.4-.1-7.5.2-3.5.5-4.1.9-5.2 4.5-.8 2.2-1.6 4.7-2 5.6-.3.9-2.4 2.7-4.7 3.9l-4.1 2.4h-62c-43.6.1-63.3-.2-66.5-1.1-5.4-1.3-8.7-4.8-10.2-10.8l-1.1-4.3-5.8-.4c-3.2-.1-6.4-.2-7.3 0z"/></svg>