<svg width="16" height="16" fill="none" xmlns="http://www.w3.org/2000/svg"><path d="M12.11 9.586c-.447-.096-.801.112-1.115.294-.321.187-.932.682-1.282.555C7.92 9.697 6.234 8.128 5.505 6.33c-.129-.358.364-.973.55-1.298.18-.314.384-.672.29-1.123-.083-.406-1.169-1.787-1.552-2.164-.253-.25-.513-.387-.779-.41-1-.042-2.119 1.293-2.315 1.613-.49.68-.488 1.587.009 2.686 1.196 2.953 5.723 7.408 8.687 8.65.546.256 1.047.384 1.496.384.44 0 .83-.123 1.167-.366.254-.146 1.644-1.32 1.608-2.347-.022-.262-.16-.524-.405-.778-.375-.387-1.748-1.505-2.15-1.59z" fill="currentColor"/></svg>
