<svg width="64" height="64" fill="none" xmlns="http://www.w3.org/2000/svg"><circle cx="32" cy="32" r="32" fill="currentColor" fill-opacity=".02"/><circle cx="32" cy="32" r="31.25" stroke="currentColor" stroke-opacity=".8" stroke-width="1.5"/><path d="M32 24.452a.581.581 0 01-.58-.58h-1.162a1.74 1.74 0 001.161 1.634v1.268h1.161v-1.268a1.74 1.74 0 001.162-1.635c0-.96-.782-1.742-1.742-1.742a.582.582 0 010-1.161c.32 0 .58.26.58.58h1.162a1.74 1.74 0 00-1.162-1.635v-1.268h-1.16v1.268a1.74 1.74 0 00-1.162 1.636c0 .96.782 1.741 1.742 1.741a.582.582 0 010 1.162z" fill="currentColor" fill-opacity=".8"/><path d="M50 31.42V14H14v17.42h9.29v3.238c0 1.035.304 2.038.878 2.9l1.445 2.166v.986h-1.161v5.806h9.887C35.93 48.626 38.45 50 41.29 50c4.803 0 8.71-3.907 8.71-8.71 0-4.802-3.907-8.71-8.71-8.71-.196 0-.387.017-.58.03v-1.19H50zM25.613 45.354V41.87h6.997a8.64 8.64 0 00.983 3.484h-7.98zm23.226-4.065c0 4.162-3.387 7.549-7.549 7.549-4.162 0-7.548-3.387-7.548-7.549 0-4.162 3.386-7.548 7.548-7.548s7.549 3.386 7.549 7.548zm-9.29-8.534a8.72 8.72 0 00-6.939 7.954h-5.836v-1.338l-1.64-2.46a4.056 4.056 0 01-.682-2.254v-4.4h-9.29V15.161h33.677v15.097H27.936V27.64A6.33 6.33 0 0032 29.097h13.355v-.58c0-.961.782-1.743 1.742-1.743h.58v-8.129h-.58c-.96 0-1.742-.782-1.742-1.742v-.58h-26.71v.58c0 .96-.782 1.742-1.742 1.742h-.58v8.13h.58c.96 0 1.742.78 1.742 1.741v.58h5.807v-4.064a1.162 1.162 0 012.322 0v8.71h.58a2.906 2.906 0 012.904 2.903h1.161a4.07 4.07 0 00-3.483-4.023v-1.203h11.612v1.337zm-12.755-9.712c-.007-.112-.02-.223-.02-.334A5.232 5.232 0 0132 17.484a5.232 5.232 0 015.226 5.226A5.232 5.232 0 0132 27.936a5.18 5.18 0 01-4.064-1.953v-.95c0-.849-.462-1.584-1.142-1.99zm-1.181-.334a2.325 2.325 0 00-2.323 2.322v2.904h-3.542a2.91 2.91 0 00-2.264-2.264v-5.924a2.91 2.91 0 002.264-2.264h8.59a6.381 6.381 0 00-2.725 5.226zm10.048-5.226h8.591a2.91 2.91 0 002.264 2.264v5.923a2.91 2.91 0 00-2.264 2.264h-8.59a6.38 6.38 0 002.725-5.225 6.38 6.38 0 00-2.726-5.226z" fill="currentColor" fill-opacity=".8"/><path d="M38.727 41.29l-3.484 3.484 2.563 2.563 3.484-3.484 3.484 3.484 2.563-2.563-3.484-3.484 3.484-3.484-2.563-2.563-3.484 3.484-3.484-3.484-2.563 2.563 3.484 3.484zm2.563-.92l3.484-3.484.92.92-3.483 3.484 3.484 3.484-.921.921-3.484-3.484-3.484 3.484-.92-.92 3.483-3.485-3.484-3.484.921-.92 3.484 3.483z" fill="currentColor" fill-opacity=".8"/></svg>
