<svg width="64" height="64" fill="none" xmlns="http://www.w3.org/2000/svg"><circle cx="32" cy="32" r="31.25" stroke="currentColor" stroke-width="1.5"/><g clip-path="url(#clip0)" fill="currentColor"><path d="M45.633 21.289l-13.53-7.21a.672.672 0 00-.641.004l-13.156 7.21a.674.674 0 00-.35.59v9.418a19.5 19.5 0 0011.688 17.847l1.826.796a.67.67 0 00.536 0l2.058-.888a19.462 19.462 0 0011.925-17.941v-9.231a.674.674 0 00-.356-.595zm-.991 9.826a18.117 18.117 0 01-11.106 16.702l-.004.002-1.792.774-1.557-.68a18.15 18.15 0 01-10.88-16.612v-9.018l12.487-6.844 12.852 6.848v8.828z"/><path d="M26.82 30.864a.674.674 0 00-1.025.875l3.558 4.167a.673.673 0 00.938.085l8.287-6.742a.673.673 0 10-.85-1.045l-7.777 6.327-3.131-3.666z"/></g><defs><clipPath id="clip0"><path fill="currentColor" transform="translate(14 14)" d="M0 0h36v36H0z"/></clipPath></defs></svg>
