<svg width="64" height="64" fill="none" xmlns="http://www.w3.org/2000/svg"><circle cx="32" cy="32" r="32" fill="currentColor" fill-opacity=".02"/><circle cx="32" cy="32" r="31.25" stroke="currentColor" stroke-opacity=".8" stroke-width="1.5"/><path d="M50 43.11a.527.527 0 11-1.054 0v-3.446h-2.358v9.282h2.358v-3.447a.527.527 0 111.054 0v3.975a.526.526 0 01-.526.526h-3.412a.526.526 0 01-.529-.526V39.137c0-.293.236-.528.529-.528h3.412c.29 0 .526.235.526.528v3.973zm-32.73-7.534a.527.527 0 110-1.055h16.151a.527.527 0 010 1.055h-16.15zm0-6.143a.527.527 0 110-1.055h16.151a.527.527 0 010 1.055h-16.15zm0 2.049a.527.527 0 110-1.054h16.151a.527.527 0 010 1.054h-16.15zm0 2.047a.527.527 0 110-1.055h16.151a.526.526 0 110 1.055h-16.15zm0 8.532a.527.527 0 110-1.054h3.533a.527.527 0 110 1.054H17.27zm9.915-23.445a.527.527 0 110-1.054h6.236a.527.527 0 010 1.054h-6.236zm0 2.388a.527.527 0 110-1.055h4.464a.527.527 0 110 1.054h-4.464zm18.48 14.115a.525.525 0 11-.042-1.05l2.27-.092a.527.527 0 01.546.506l.076 1.964a.526.526 0 01-1.052.037l-.032-.845-5.095 5.053a.526.526 0 01-.653.07l-4.991-3.191v3.081h1.178c.29 0 .528.235.528.528v2.952a.527.527 0 01-1.055 0v-2.425h-2.357v7.239h2.358V46.52a.527.527 0 011.054 0v2.954a.527.527 0 01-.528.526h-3.412a.527.527 0 01-.529-.526v-4.038h-1.333v4.038a.526.526 0 01-.528.526h-3.413a.526.526 0 01-.526-.526v-4.038h-13.6a.53.53 0 01-.529-.529V14.528a.53.53 0 01.528-.528h21.636a.53.53 0 01.528.528v8.54a.527.527 0 01-1.054 0v-8.014H15.054V44.38H28.13v-.62c0-.29.235-.526.526-.526h3.413c.293 0 .528.236.528.527v.62h1.333v-3.2c0-.293.237-.528.529-.528h1.18v-3.257L28.855 40.2a.525.525 0 11-.399-.973l7.182-2.968V25.456a.527.527 0 011.054 0v10.867l5.202 3.327 4.602-4.565-.831.034zM29.184 48.946h2.358v-4.658h-2.358v4.658zm11.602 0h2.358v-3.53h-2.358v3.53zM43.672 50H40.26a.527.527 0 01-.529-.526V44.89a.53.53 0 01.529-.529h3.412a.53.53 0 01.528.529v4.584c0 .29-.237.526-.528.526z" fill="currentColor" fill-opacity=".8"/></svg>
