<svg width="16" height="16" fill="none" xmlns="http://www.w3.org/2000/svg"><path fill-rule="evenodd" clip-rule="evenodd" d="M11.293 2a3.371 3.371 0 013.374 3.367v5.266A3.372 3.372 0 0111.293 14H4.707a3.371 3.371 0 01-3.373-3.367V5.367A3.367 3.367 0 014.707 2h6.586zm1.061 4.36l.053-.053a.516.516 0 00-.007-.667.56.56 0 00-.353-.173.507.507 0 00-.374.133L8.667 8c-.386.32-.94.32-1.333 0l-3-2.4a.51.51 0 00-.714.713l.087.087 3.034 2.367a2.096 2.096 0 002.606 0l3.007-2.407z" fill="currentColor"/></svg>
