<svg width="217" height="20" fill="none" xmlns="http://www.w3.org/2000/svg"><path d="M5.764 16V3.108H.88V.6h12.496v2.508H8.492V16H5.764zm19.48 0h-2.64v-1.43c-.939 1.115-2.193 1.672-3.762 1.672-1.159 0-2.142-.315-2.948-.946-.792-.645-1.188-1.54-1.188-2.684 0-1.247.432-2.193 1.298-2.838.865-.645 2.002-.968 3.41-.968 1.129 0 2.2.161 3.212.484v-.22c0-.807-.25-1.423-.748-1.848-.484-.425-1.188-.638-2.112-.638-1.056 0-2.164.242-3.322.726l-.726-2.134c1.437-.645 2.911-.968 4.422-.968 1.686 0 2.955.425 3.806 1.276.865.85 1.298 2.06 1.298 3.63V16zm-2.574-4.202v-.66c-.792-.308-1.68-.462-2.662-.462-.836 0-1.489.161-1.958.484-.47.323-.704.777-.704 1.364 0 .528.212.946.638 1.254.425.308.96.462 1.606.462.894 0 1.628-.227 2.2-.682.586-.455.88-1.041.88-1.76zM30.456 16V6.672h-3.74V4.384H36.88v2.288h-3.74V16h-2.684zm8.095 0V4.384h2.662v4.07h2.662c1.379 0 2.494.308 3.344.924.85.616 1.276 1.533 1.276 2.75 0 1.203-.396 2.149-1.188 2.838-.792.69-1.87 1.034-3.234 1.034h-5.522zm2.662-2.156h2.508c.675 0 1.196-.147 1.562-.44.367-.293.55-.719.55-1.276 0-.513-.19-.91-.572-1.188-.366-.279-.894-.418-1.584-.418h-2.464v3.322zM49.323 16l3.212-4.356c-.821-.25-1.481-.667-1.98-1.254-.484-.601-.726-1.342-.726-2.222 0-1.144.403-2.06 1.21-2.75.806-.69 1.928-1.034 3.366-1.034h5.83V16h-2.662v-3.916h-2.376L52.447 16h-3.124zm5.456-5.918h2.794V6.54h-2.816c-.704 0-1.261.161-1.672.484-.396.308-.594.733-.594 1.276 0 .557.205.997.616 1.32.425.308.983.462 1.672.462zM63.13 16V4.384h2.662v4.708h5.126V4.384h2.662V16h-2.662v-4.686h-5.126V16H63.13zm23.1 0h-2.64v-1.43c-.94 1.115-2.194 1.672-3.763 1.672-1.159 0-2.141-.315-2.948-.946-.792-.645-1.188-1.54-1.188-2.684 0-1.247.433-2.193 1.298-2.838s2.002-.968 3.41-.968c1.13 0 2.2.161 3.212.484v-.22c0-.807-.25-1.423-.748-1.848-.484-.425-1.188-.638-2.112-.638-1.056 0-2.163.242-3.322.726l-.726-2.134a10.692 10.692 0 014.422-.968c1.687 0 2.956.425 3.806 1.276.865.85 1.298 2.06 1.298 3.63V16zm-2.575-4.202v-.66c-.792-.308-1.68-.462-2.662-.462-.836 0-1.489.161-1.958.484-.47.323-.704.777-.704 1.364 0 .528.213.946.638 1.254.425.308.96.462 1.606.462.895 0 1.628-.227 2.2-.682.587-.455.88-1.041.88-1.76zM95.42 16V.6h12.562V16h-2.706V3.042h-7.15V16H95.42zm15.773 3.52V4.384h2.662V6.32c1.027-1.452 2.34-2.178 3.938-2.178 1.467 0 2.736.55 3.806 1.65 1.071 1.085 1.606 2.56 1.606 4.422 0 1.833-.535 3.3-1.606 4.4-1.07 1.085-2.339 1.628-3.806 1.628-1.598 0-2.911-.682-3.938-2.046v5.324h-2.662zm5.984-5.588c.939 0 1.724-.345 2.354-1.034.646-.69.968-1.599.968-2.728 0-1.1-.322-1.995-.968-2.684-.645-.69-1.43-1.034-2.354-1.034-.924 0-1.723.352-2.398 1.056-.66.704-.99 1.606-.99 2.706 0 1.085.33 1.98.99 2.684.675.69 1.474 1.034 2.398 1.034zm13.837 2.332c-1.76 0-3.227-.587-4.4-1.76-1.174-1.173-1.76-2.603-1.76-4.29 0-1.687.594-3.117 1.782-4.29 1.188-1.188 2.662-1.782 4.422-1.782 1.76 0 3.226.587 4.4 1.76 1.188 1.173 1.782 2.61 1.782 4.312 0 1.672-.594 3.102-1.782 4.29-1.188 1.173-2.67 1.76-4.444 1.76zm.044-2.31c1.056 0 1.906-.36 2.552-1.078.645-.719.968-1.606.968-2.662 0-1.041-.338-1.921-1.012-2.64-.675-.733-1.526-1.1-2.552-1.1-1.042 0-1.885.36-2.53 1.078-.646.719-.968 1.606-.968 2.662 0 1.027.337 1.907 1.012 2.64.674.733 1.518 1.1 2.53 1.1zm7.44 2.046l4.268-5.896-4.114-5.72h2.904l2.684 3.828 2.684-3.828h2.838l-4.114 5.654 4.29 5.962h-2.904l-2.86-4.07-2.838 4.07h-2.838zm18.855.264c-1.76 0-3.226-.587-4.4-1.76-1.173-1.173-1.76-2.603-1.76-4.29 0-1.687.594-3.117 1.782-4.29 1.188-1.188 2.662-1.782 4.422-1.782 1.76 0 3.227.587 4.4 1.76 1.188 1.173 1.782 2.61 1.782 4.312 0 1.672-.594 3.102-1.782 4.29-1.188 1.173-2.669 1.76-4.444 1.76zm.044-2.31c1.056 0 1.907-.36 2.552-1.078.646-.719.968-1.606.968-2.662 0-1.041-.337-1.921-1.012-2.64-.674-.733-1.525-1.1-2.552-1.1-1.041 0-1.884.36-2.53 1.078-.645.719-.968 1.606-.968 2.662 0 1.027.338 1.907 1.012 2.64.675.733 1.518 1.1 2.53 1.1zm8.453 5.566V4.384h2.662V6.32c1.027-1.452 2.34-2.178 3.938-2.178 1.467 0 2.736.55 3.806 1.65 1.071 1.085 1.606 2.56 1.606 4.422 0 1.833-.535 3.3-1.606 4.4-1.07 1.085-2.339 1.628-3.806 1.628-1.598 0-2.911-.682-3.938-2.046v5.324h-2.662zm5.984-5.588c.939 0 1.724-.345 2.354-1.034.646-.69.968-1.599.968-2.728 0-1.1-.322-1.995-.968-2.684-.645-.69-1.43-1.034-2.354-1.034-.924 0-1.723.352-2.398 1.056-.66.704-.99 1.606-.99 2.706 0 1.085.33 1.98.99 2.684.675.69 1.474 1.034 2.398 1.034zm13.837 2.332c-1.76 0-3.227-.587-4.4-1.76-1.174-1.173-1.76-2.603-1.76-4.29 0-1.687.594-3.117 1.782-4.29 1.188-1.188 2.662-1.782 4.422-1.782 1.76 0 3.226.587 4.4 1.76 1.188 1.173 1.782 2.61 1.782 4.312 0 1.672-.594 3.102-1.782 4.29-1.188 1.173-2.67 1.76-4.444 1.76zm.044-2.31c1.056 0 1.906-.36 2.552-1.078.645-.719.968-1.606.968-2.662 0-1.041-.338-1.921-1.012-2.64-.675-.733-1.526-1.1-2.552-1.1-1.042 0-1.885.36-2.53 1.078-.646.719-.968 1.606-.968 2.662 0 1.027.337 1.907 1.012 2.64.674.733 1.518 1.1 2.53 1.1zM194.168 16V4.384h5.962c1.158 0 2.082.264 2.772.792.704.513 1.056 1.217 1.056 2.112 0 1.217-.624 2.105-1.87 2.662 1.598.455 2.398 1.423 2.398 2.904 0 .983-.389 1.753-1.166 2.31-.763.557-1.804.836-3.124.836h-6.028zm2.618-2.112h3.014c.63 0 1.114-.132 1.452-.396.352-.279.528-.645.528-1.1 0-.44-.184-.785-.55-1.034-.352-.25-.873-.374-1.562-.374h-2.882v2.904zm0-4.708h2.728c.542 0 .968-.132 1.276-.396.308-.264.462-.609.462-1.034 0-.396-.14-.711-.418-.946-.279-.25-.704-.374-1.276-.374h-2.772v2.75zM216.45 16h-2.64v-1.43c-.938 1.115-2.192 1.672-3.762 1.672-1.158 0-2.141-.315-2.948-.946-.792-.645-1.188-1.54-1.188-2.684 0-1.247.433-2.193 1.298-2.838.866-.645 2.002-.968 3.41-.968 1.13 0 2.2.161 3.212.484v-.22c0-.807-.249-1.423-.748-1.848-.484-.425-1.188-.638-2.112-.638-1.056 0-2.163.242-3.322.726l-.726-2.134c1.438-.645 2.912-.968 4.422-.968 1.687 0 2.956.425 3.806 1.276.866.85 1.298 2.06 1.298 3.63V16zm-2.574-4.202v-.66c-.792-.308-1.679-.462-2.662-.462-.836 0-1.488.161-1.958.484-.469.323-.704.777-.704 1.364 0 .528.213.946.638 1.254.426.308.961.462 1.606.462.895 0 1.628-.227 2.2-.682.587-.455.88-1.041.88-1.76z" fill="#22181C"/></svg>