<svg width="136" height="40" viewBox="0 0 136 40" fill="none" xmlns="http://www.w3.org/2000/svg">
<path d="M83.0549 24.1653V20.8323C83.0745 20.552 83.0335 20.2708 82.9344 20.0074C82.8354 19.744 82.6806 19.5044 82.4805 19.3047C82.2803 19.105 82.0393 18.9496 81.7735 18.8491C81.5078 18.7485 81.2234 18.705 80.9393 18.7214C80.5674 18.6974 80.1957 18.7723 79.8632 18.9384C79.5307 19.1045 79.2494 19.3557 79.0487 19.6658C78.8658 19.365 78.6041 19.1186 78.2912 18.9524C77.9782 18.7862 77.6257 18.7064 77.2707 18.7214C76.9612 18.706 76.6531 18.7707 76.3767 18.909C76.1004 19.0474 75.8655 19.2546 75.6952 19.5102V18.8548H74.5249V24.1653H75.7065V21.2434C75.6814 21.0618 75.6972 20.8769 75.7528 20.7021C75.8084 20.5272 75.9025 20.3666 76.0283 20.2318C76.1541 20.097 76.3085 19.9913 76.4805 19.9223C76.6524 19.8532 76.8377 19.8226 77.0231 19.8324C77.7996 19.8324 78.1935 20.3324 78.1935 21.2323V24.1875H79.3751V21.2434C79.351 21.062 79.3675 20.8775 79.4235 20.7031C79.4795 20.5287 79.5736 20.3685 79.6992 20.234C79.8248 20.0994 79.9787 19.9937 80.1502 19.9243C80.3217 19.8549 80.5066 19.8236 80.6917 19.8324C81.4907 19.8324 81.8733 20.3324 81.8733 21.2323V24.1875L83.0549 24.1653ZM100.537 18.8548H98.6125V17.2438H97.4309V18.8548H96.3619V19.9102H97.4534V22.3544C97.4534 23.5875 97.9373 24.3208 99.3215 24.3208C99.8386 24.3225 100.346 24.18 100.784 23.9097L100.447 22.921C100.133 23.1058 99.7767 23.209 99.4115 23.2209C98.8488 23.2209 98.635 22.8654 98.635 22.3321V19.9102H100.548L100.537 18.8548ZM110.518 18.7214C110.233 18.7132 109.951 18.781 109.701 18.9179C109.452 19.0548 109.244 19.2556 109.101 19.4991V18.8548H107.941V24.1653H109.112V21.1878C109.112 20.3102 109.494 19.8213 110.237 19.8213C110.487 19.8179 110.736 19.8632 110.969 19.9546L111.329 18.8437C111.061 18.7493 110.78 18.7004 110.496 18.6992L110.518 18.7214ZM95.4278 19.2769C94.7654 18.8881 94.0037 18.6953 93.2334 18.7214C91.8718 18.7214 90.9828 19.3658 90.9828 20.4212C90.9828 21.2878 91.6355 21.8211 92.8396 21.9877L93.4022 22.0655C94.0437 22.1544 94.3475 22.321 94.3475 22.621C94.3475 23.0321 93.9199 23.2654 93.1209 23.2654C92.4782 23.2837 91.848 23.0881 91.3316 22.7099L90.769 23.6098C91.4507 24.0797 92.2673 24.3212 93.0984 24.2986C94.6514 24.2986 95.5516 23.5764 95.5516 22.5654C95.5516 21.5544 94.8427 21.1434 93.6723 20.9767L93.1097 20.899C92.6033 20.8323 92.1981 20.7323 92.1981 20.3768C92.1981 20.0213 92.5808 19.7547 93.2222 19.7547C93.8151 19.7615 94.3962 19.9183 94.9102 20.2102L95.4278 19.2769ZM126.774 18.7214C126.488 18.7132 126.206 18.781 125.957 18.9179C125.707 19.0548 125.499 19.2556 125.356 19.4991V18.8548H124.197V24.1653H125.367V21.1878C125.367 20.3102 125.75 19.8213 126.492 19.8213C126.743 19.8179 126.991 19.8632 127.224 19.9546L127.584 18.8437C127.317 18.7493 127.035 18.7004 126.751 18.6992L126.774 18.7214ZM111.694 21.4989C111.68 21.8721 111.746 22.244 111.886 22.5909C112.026 22.9378 112.238 23.2521 112.508 23.5135C112.778 23.7749 113.1 23.9778 113.454 24.1092C113.808 24.2406 114.186 24.2975 114.564 24.2764C115.267 24.3117 115.957 24.0857 116.5 23.6431L115.937 22.7099C115.532 23.0145 115.039 23.182 114.53 23.1876C114.098 23.153 113.694 22.959 113.4 22.644C113.106 22.3291 112.942 21.9163 112.942 21.4878C112.942 21.0593 113.106 20.6465 113.4 20.3316C113.694 20.0166 114.098 19.8225 114.53 19.788C115.039 19.7936 115.532 19.9611 115.937 20.2657L116.5 19.3325C115.957 18.8899 115.267 18.6639 114.564 18.6992C114.186 18.6781 113.808 18.735 113.454 18.8664C113.1 18.9978 112.778 19.2006 112.508 19.4621C112.238 19.7235 112.026 20.0377 111.886 20.3846C111.746 20.7315 111.68 21.1035 111.694 21.4767V21.4989ZM122.655 21.4989V18.8548H121.485V19.4991C121.286 19.2467 121.029 19.0445 120.736 18.9093C120.442 18.774 120.12 18.7097 119.797 18.7214C119.051 18.7214 118.335 19.0141 117.807 19.5349C117.28 20.0558 116.983 20.7623 116.983 21.4989C116.983 22.2355 117.28 22.942 117.807 23.4629C118.335 23.9837 119.051 24.2764 119.797 24.2764C120.12 24.2881 120.442 24.2238 120.736 24.0886C121.029 23.9533 121.286 23.7511 121.485 23.4987V24.143H122.655V21.4989ZM118.3 21.4989C118.319 21.1863 118.43 20.8859 118.619 20.6348C118.808 20.3836 119.068 20.1926 119.366 20.0852C119.664 19.9779 119.987 19.9589 120.296 20.0307C120.605 20.1025 120.885 20.2618 121.104 20.4891C121.322 20.7163 121.468 21.0017 121.524 21.3099C121.58 21.6181 121.543 21.9357 121.419 22.2237C121.294 22.5117 121.087 22.7574 120.823 22.9307C120.559 23.1039 120.249 23.1971 119.932 23.1987C119.709 23.2015 119.488 23.1587 119.283 23.0731C119.078 22.9875 118.893 22.8609 118.739 22.7012C118.586 22.5416 118.468 22.3523 118.392 22.1454C118.317 21.9385 118.285 21.7184 118.3 21.4989V21.4989ZM104.177 18.7214C103.431 18.7318 102.72 19.0343 102.199 19.5624C101.679 20.0906 101.393 20.8012 101.403 21.5378C101.414 22.2744 101.72 22.9768 102.255 23.4904C102.79 24.0039 103.51 24.2867 104.256 24.2764C105.066 24.3174 105.862 24.06 106.49 23.5542L105.927 22.6988C105.483 23.0505 104.932 23.246 104.363 23.2543C103.976 23.2871 103.591 23.1697 103.291 22.9269C102.99 22.6842 102.798 22.3353 102.754 21.9544H106.749C106.749 21.81 106.749 21.6656 106.749 21.51C106.749 19.8435 105.702 18.7326 104.194 18.7326L104.177 18.7214ZM104.177 19.7547C104.352 19.751 104.527 19.7814 104.69 19.8442C104.853 19.9069 105.002 20.0009 105.129 20.1205C105.255 20.2402 105.356 20.3833 105.427 20.5417C105.497 20.7 105.535 20.8705 105.539 21.0434H102.726C102.746 20.6868 102.907 20.3523 103.174 20.1114C103.441 19.8705 103.793 19.7425 104.155 19.7547H104.177ZM133.498 21.51V16.7217H132.372V19.4991C132.174 19.2467 131.917 19.0445 131.623 18.9093C131.33 18.774 131.008 18.7097 130.684 18.7214C129.938 18.7214 129.223 19.0141 128.695 19.5349C128.167 20.0558 127.871 20.7623 127.871 21.4989C127.871 22.2355 128.167 22.942 128.695 23.4629C129.223 23.9837 129.938 24.2764 130.684 24.2764C131.008 24.2881 131.33 24.2238 131.623 24.0886C131.917 23.9533 132.174 23.7511 132.372 23.4987V24.143H133.498V21.51ZM135.45 23.3931C135.523 23.3922 135.596 23.4055 135.664 23.432C135.728 23.458 135.788 23.4957 135.838 23.5431C135.888 23.591 135.928 23.6475 135.956 23.7098C135.985 23.7746 136 23.8446 136 23.9153C136 23.986 135.985 24.0559 135.956 24.1208C135.928 24.1831 135.888 24.2396 135.838 24.2875C135.788 24.3349 135.728 24.3725 135.664 24.3986C135.597 24.4279 135.524 24.443 135.45 24.443C135.343 24.4422 135.239 24.4115 135.149 24.3545C135.06 24.2974 134.988 24.2164 134.944 24.1208C134.915 24.0559 134.901 23.9859 134.901 23.9153C134.901 23.8446 134.915 23.7747 134.944 23.7098C134.972 23.6475 135.012 23.591 135.062 23.5431C135.112 23.4957 135.172 23.458 135.236 23.432C135.31 23.4032 135.388 23.39 135.467 23.3931H135.45ZM135.45 24.3319C135.506 24.3322 135.562 24.3209 135.613 24.2986C135.662 24.2772 135.706 24.2471 135.743 24.2097C135.813 24.1339 135.852 24.0348 135.852 23.932C135.852 23.8291 135.813 23.73 135.743 23.6542C135.706 23.6167 135.662 23.5865 135.613 23.5653C135.562 23.5432 135.506 23.5318 135.45 23.532C135.394 23.5323 135.338 23.5436 135.287 23.5653C135.236 23.5858 135.19 23.616 135.152 23.6542C135.081 23.73 135.042 23.8291 135.042 23.932C135.042 24.0348 135.081 24.1339 135.152 24.2097C135.191 24.2478 135.236 24.278 135.287 24.2986C135.344 24.3227 135.405 24.3341 135.467 24.3319H135.45ZM135.484 23.6709C135.536 23.6684 135.588 23.6841 135.63 23.7153C135.647 23.7294 135.661 23.7473 135.67 23.7676C135.679 23.7879 135.682 23.8099 135.681 23.832C135.682 23.8504 135.678 23.8688 135.672 23.886C135.665 23.9033 135.655 23.9189 135.641 23.932C135.609 23.9612 135.567 23.9788 135.523 23.9819L135.686 24.1653H135.557L135.405 23.9819H135.354V24.1653H135.247V23.6764L135.484 23.6709ZM135.36 23.7653V23.8986H135.484C135.506 23.9051 135.529 23.9051 135.551 23.8986C135.555 23.8909 135.557 23.8823 135.557 23.8736C135.557 23.8649 135.555 23.8564 135.551 23.8486C135.555 23.8409 135.557 23.8323 135.557 23.8236C135.557 23.8149 135.555 23.8064 135.551 23.7986C135.529 23.7922 135.506 23.7922 135.484 23.7986L135.36 23.7653ZM129.171 21.51C129.189 21.1974 129.3 20.897 129.49 20.6459C129.679 20.3947 129.939 20.2037 130.237 20.0963C130.535 19.989 130.858 19.9701 131.167 20.0418C131.475 20.1136 131.756 20.2729 131.974 20.5002C132.192 20.7275 132.339 21.0128 132.395 21.321C132.451 21.6292 132.414 21.9468 132.29 22.2348C132.165 22.5228 131.958 22.7686 131.694 22.9418C131.429 23.115 131.12 23.2082 130.802 23.2098C130.58 23.2126 130.359 23.1698 130.153 23.0842C129.948 22.9986 129.763 22.872 129.61 22.7123C129.457 22.5527 129.339 22.3634 129.263 22.1565C129.187 21.9496 129.156 21.7295 129.171 21.51V21.51ZM89.6549 21.51V18.8548H88.4846V19.4991C88.2858 19.2467 88.0291 19.0445 87.7356 18.9093C87.4421 18.774 87.1202 18.7097 86.7966 18.7214C86.0504 18.7214 85.3349 19.0141 84.8073 19.5349C84.2797 20.0558 83.9833 20.7623 83.9833 21.4989C83.9833 22.2355 84.2797 22.942 84.8073 23.4629C85.3349 23.9837 86.0504 24.2764 86.7966 24.2764C87.1202 24.2881 87.4421 24.2238 87.7356 24.0886C88.0291 23.9533 88.2858 23.7511 88.4846 23.4987V24.143H89.6549V21.51ZM85.2999 21.51C85.3186 21.1974 85.4294 20.897 85.6188 20.6459C85.8082 20.3947 86.0679 20.2037 86.3658 20.0963C86.6638 19.989 86.987 19.9701 87.2958 20.0418C87.6045 20.1136 87.8853 20.2729 88.1034 20.5002C88.3216 20.7275 88.4677 21.0128 88.5237 21.321C88.5797 21.6292 88.5432 21.9468 88.4187 22.2348C88.2941 22.5228 88.087 22.7686 87.8228 22.9418C87.5586 23.115 87.2488 23.2082 86.9316 23.2098C86.7079 23.2142 86.4857 23.1725 86.2791 23.0876C86.0726 23.0027 85.8861 22.8763 85.7316 22.7165C85.5772 22.5567 85.458 22.3669 85.3818 22.1592C85.3055 21.9515 85.2738 21.7304 85.2886 21.51H85.2999Z" fill="#231F20"/>
<path d="M41.6341 4.27686H23.9102V35.7232H41.6341V4.27686Z" fill="#FF5F00"/>
<path d="M25.0355 20.0012C25.0322 16.9723 25.7271 13.9823 27.0675 11.2577C28.4079 8.53313 30.3587 6.14537 32.7721 4.27525C29.7839 1.95675 26.1952 0.515011 22.4163 0.114814C18.6374 -0.285384 14.8206 0.372104 11.4023 2.01213C7.98393 3.65216 5.1019 6.20856 3.08558 9.38917C1.06926 12.5698 0 16.2462 0 19.9984C0 23.7506 1.06926 27.4271 3.08558 30.6077C5.1019 33.7883 7.98393 36.3447 11.4023 37.9847C14.8206 39.6247 18.6374 40.2822 22.4163 39.882C26.1952 39.4818 29.7839 38.0401 32.7721 35.7216C30.3594 33.852 28.4091 31.4652 27.0687 28.7416C25.7284 26.0181 25.0331 23.0292 25.0355 20.0012V20.0012Z" fill="#EB001B"/>
<path d="M65.548 20.0028C65.5479 23.7552 64.4784 27.4319 62.4618 30.6127C60.4451 33.7934 57.5626 36.3497 54.1439 37.9895C50.7251 39.6293 46.908 40.2864 43.1288 39.8856C39.3497 39.4848 35.761 38.0424 32.7729 35.7232C35.1847 33.852 37.1345 31.4644 38.4752 28.7407C39.8159 26.017 40.5125 23.0283 40.5125 20C40.5125 16.9717 39.8159 13.983 38.4752 11.2593C37.1345 8.53555 35.1847 6.14803 32.7729 4.27683C35.761 1.9576 39.3497 0.515165 43.1288 0.114393C46.908 -0.286379 50.7251 0.370686 54.1439 2.01048C57.5626 3.65028 60.4451 6.20663 62.4618 9.38734C64.4784 12.5681 65.5479 16.2448 65.548 19.9972V20.0028Z" fill="#F79E1B"/>
<path d="M63.6117 32.39V31.7456H63.8761V31.6123H63.2065V31.7456H63.4935V32.39H63.6117ZM64.9114 32.39V31.6123H64.7088L64.4725 32.1678L64.2362 31.6123H64.0562V32.39H64.2024V31.8067L64.4219 32.3122H64.5738L64.7932 31.8067V32.3956L64.9114 32.39Z" fill="#F79E1B"/>
</svg>
