<svg width="124" height="40" viewBox="0 0 124 40" fill="none" xmlns="http://www.w3.org/2000/svg">
<g clip-path="url(#clip0)">
<path d="M53.7334 39.423H43.6885L49.9713 0.701904H60.0156L53.7334 39.423Z" fill="#00579F"/>
<path d="M90.1466 1.64851C88.1653 0.865044 85.0228 0 81.1371 0C71.2174 0 64.2321 5.27238 64.1893 12.8103C64.1069 18.3718 69.1906 21.4607 72.9928 23.3151C76.879 25.21 78.2 26.4468 78.2 28.1358C78.1605 30.7298 75.0597 31.9256 72.1677 31.9256C68.1573 31.9256 66.0085 31.3091 62.743 29.8659L61.4203 29.2472L60.0146 37.9392C62.3706 39.009 66.7111 39.9584 71.2174 40C81.7572 40 88.619 34.8092 88.7003 26.7764C88.7404 22.3685 86.056 18.991 80.2687 16.231C76.7554 14.4594 74.6038 13.2647 74.6038 11.452C74.645 9.804 76.4236 8.11607 80.3895 8.11607C83.655 8.0334 86.0544 8.81577 87.872 9.59869L88.7805 10.0099L90.1466 1.64851V1.64851Z" fill="#00579F"/>
<path d="M103.497 25.7055C104.324 23.481 107.507 14.8716 107.507 14.8716C107.466 14.9543 108.333 12.6061 108.829 11.1645L109.531 14.501C109.531 14.501 111.433 23.7695 111.846 25.7055C110.276 25.7055 105.481 25.7055 103.497 25.7055ZM115.896 0.701904H108.127C105.731 0.701904 103.91 1.4016 102.876 3.91461L87.9561 39.4224H98.4958C98.4958 39.4224 100.231 34.6433 100.604 33.614C101.76 33.614 112.013 33.614 113.501 33.614C113.789 34.9735 114.699 39.4224 114.699 39.4224H124L115.896 0.701904V0.701904Z" fill="#00579F"/>
<path d="M35.2984 0.701904L25.4612 27.106L24.3862 21.7509C22.5675 15.5719 16.8637 8.85849 10.4985 5.52041L19.5091 39.3819H30.1313L45.9201 0.701904H35.2984V0.701904Z" fill="#00579F"/>
<path d="M16.3266 0.701904H0.165336L0 1.48427C12.6068 4.69752 20.956 12.4429 24.3863 21.7526L20.873 3.95676C20.2946 1.48373 18.5171 0.783481 16.3266 0.701904Z" fill="#FAA61A"/>
</g>
<defs>
<clipPath id="clip0">
<rect width="124" height="40" fill="white"/>
</clipPath>
</defs>
</svg>
